<?xml version="1.0"?>
<svg xmlns="http://www.w3.org/2000/svg" width="1000" height="1000" viewBox="-500 -500 1000 1000">
    <path d="M-34.49,-193.78L34.49,-193.78L34.49,-144.28L-34.49,-144.28Z"/>
    <path d="M31.02,-151.64L100.00,-151.64L100.00,-102.13L31.02,-102.13Z"/>
    <path d="M60.17,-64.65L129.15,-64.65L129.15,-15.14L60.17,-15.14Z"/>
    <path d="M60.60,23.76L129.59,23.76L129.59,73.26L60.60,73.26Z"/>
    <path d="M31.80,110.70L100.79,110.70L100.79,160.21L31.80,160.21Z"/>
    <path d="M-34.65,153.32L34.33,153.32L34.33,202.82L-34.65,202.82Z"/>
    <path d="M-101.55,109.40L-32.57,109.40L-32.57,158.91L-101.55,158.91Z"/>
    <path d="M-129.80,21.57L-60.82,21.57L-60.82,71.07L-129.80,71.07Z"/>
    <path d="M-129.36,-66.10L-60.37,-66.10L-60.37,-16.59L-129.36,-16.59Z"/>
    <path d="M-100.41,-151.93L-31.43,-151.93L-31.43,-102.43L-100.41,-102.43Z"/>
    <path d="M217.38,-21.12L286.36,-21.12L286.36,28.38L217.38,28.38Z"/>
    <path d="M206.18,-120.04L275.17,-120.04L275.17,-70.53L206.18,-70.53Z"/>
    <path d="M175.05,-202.57L244.04,-202.57L244.04,-153.06L175.05,-153.06Z"/>
    <path d="M127.21,-266.09L196.20,-266.09L196.20,-216.58L127.21,-216.58Z"/>
    <path d="M50.69,-315.35L119.68,-315.35L119.68,-265.84L50.69,-265.84Z"/>
    <path d="M-34.08,-331.73L34.91,-331.73L34.91,-282.23L-34.08,-282.23Z"/>
    <path d="M-118.88,-315.66L-49.89,-315.66L-49.89,-266.16L-118.88,-266.16Z"/>
    <path d="M-195.53,-266.72L-126.54,-266.72L-126.54,-217.22L-195.53,-217.22Z"/>
    <path d="M-243.65,-203.28L-174.66,-203.28L-174.66,-153.78L-243.65,-153.78Z"/>
    <path d="M-274.96,-120.92L-205.97,-120.92L-205.97,-71.41L-274.96,-71.41Z"/>
    <path d="M-286.36,-22.15L-217.38,-22.15L-217.38,27.35L-286.36,27.35Z"/>
    <path d="M-275.31,76.57L-206.32,76.57L-206.32,126.08L-275.31,126.08Z"/>
    <path d="M-244.16,159.23L-175.18,159.23L-175.18,208.74L-244.16,208.74Z"/>
    <path d="M-196.20,222.95L-127.21,222.95L-127.21,272.46L-196.20,272.46Z"/>
    <path d="M-119.68,272.21L-50.69,272.21L-50.69,321.72L-119.68,321.72Z"/>
    <path d="M-34.91,288.60L34.08,288.60L34.08,338.10L-34.91,338.10Z"/>
    <path d="M49.89,272.53L118.88,272.53L118.88,322.03L49.89,322.03Z"/>
    <path d="M126.54,223.59L195.53,223.59L195.53,273.09L126.54,273.09Z"/>
    <path d="M174.79,159.95L243.77,159.95L243.77,209.45L174.79,209.45Z"/>
    <path d="M206.11,77.46L275.10,77.46L275.10,126.96L206.11,126.96Z"/>
</svg>