<?xml version="1.0"?>
<svg xmlns="http://www.w3.org/2000/svg" width="1000" height="1000" viewBox="-500 -500 1000 1000">
    <path d="M-93.23,275.25L-24.25,275.25L-24.25,324.75L-93.23,324.75Z"/>
    <path d="M-5.64,275.25L63.35,275.25L63.35,324.75L-5.64,324.75Z"/>
    <path d="M60.74,254.03L129.72,254.03L129.72,303.53L60.74,303.53Z"/>
    <path d="M60.74,166.43L129.72,166.43L129.72,215.94L60.74,215.94Z"/>
    <path d="M60.74,78.84L129.72,78.84L129.72,128.34L60.74,128.34Z"/>
    <path d="M60.74,-8.76L129.72,-8.76L129.72,40.75L60.74,40.75Z"/>
    <path d="M60.74,-96.35L129.72,-96.35L129.72,-46.84L60.74,-46.84Z"/>
    <path d="M60.74,-183.95L129.72,-183.95L129.72,-134.44L60.74,-134.44Z"/>
    <path d="M60.74,-271.54L129.72,-271.54L129.72,-222.03L60.74,-222.03Z"/>
    <path d="M19.98,-318.38L88.97,-318.38L88.97,-268.88L19.98,-268.88Z"/>
    <path d="M-67.61,-318.38L1.38,-318.38L1.38,-268.88L-67.61,-268.88Z"/>
    <path d="M-155.21,-318.38L-86.22,-318.38L-86.22,-268.88L-155.21,-268.88Z"/>
    <path d="M-177.78,-253.37L-108.80,-253.37L-108.80,-203.86L-177.78,-203.86Z"/>
    <path d="M-156.00,-187.55L-87.02,-187.55L-87.02,-138.05L-156.00,-138.05Z"/>
    <path d="M-93.23,-162.73L-24.25,-162.73L-24.25,-113.22L-93.23,-113.22Z"/>
    <path d="M-93.23,-75.13L-24.25,-75.13L-24.25,-25.63L-93.23,-25.63Z"/>
    <path d="M-93.23,12.46L-24.25,12.46L-24.25,61.97L-93.23,61.97Z"/>
    <path d="M-93.23,100.06L-24.25,100.06L-24.25,149.56L-93.23,149.56Z"/>
    <path d="M-93.23,187.65L-24.25,187.65L-24.25,237.16L-93.23,237.16Z"/>
</svg>