<?xml version="1.0"?>
<svg xmlns="http://www.w3.org/2000/svg" width="1000" height="1000" viewBox="-500 -500 1000 1000">
    <path d="M197.80,144.42L266.78,144.42L266.78,193.92L197.80,193.92Z"/>
    <path d="M105.55,144.42L174.54,144.42L174.54,193.92L105.55,193.92Z"/>
    <path d="M13.30,144.42L82.29,144.42L82.29,193.92L13.30,193.92Z"/>
    <path d="M64.39,88.13L133.38,88.13L133.38,137.64L64.39,137.64Z"/>
    <path d="M131.95,22.89L200.94,22.89L200.94,72.40L131.95,72.40Z"/>
    <path d="M179.15,-52.52L248.14,-52.52L248.14,-3.01L179.15,-3.01Z"/>
    <path d="M190.09,-151.42L259.08,-151.42L259.08,-101.92L190.09,-101.92Z"/>
    <path d="M157.13,-242.20L226.12,-242.20L226.12,-192.69L157.13,-192.69Z"/>
    <path d="M110.48,-290.01L179.46,-290.01L179.46,-240.50L110.48,-240.50Z"/>
    <path d="M28.40,-325.46L97.38,-325.46L97.38,-275.95L28.40,-275.95Z"/>
    <path d="M-83.83,-327.63L-14.84,-327.63L-14.84,-278.13L-83.83,-278.13Z"/>
    <path d="M-167.66,-295.46L-98.67,-295.46L-98.67,-245.95L-167.66,-245.95Z"/>
    <path d="M-224.52,-240.53L-155.53,-240.53L-155.53,-191.03L-224.52,-191.03Z"/>
    <path d="M-261.43,-156.84L-192.44,-156.84L-192.44,-107.33L-261.43,-107.33Z"/>
    <path d="M-220.70,-103.00L-151.72,-103.00L-151.72,-53.50L-220.70,-53.50Z"/>
    <path d="M-128.46,-103.00L-59.47,-103.00L-59.47,-53.50L-128.46,-53.50Z"/>
    <path d="M-89.60,-172.28L-20.61,-172.28L-20.61,-122.78L-89.60,-122.78Z"/>
    <path d="M-5.90,-193.01L63.09,-193.01L63.09,-143.50L-5.90,-143.50Z"/>
    <path d="M25.44,-112.66L94.43,-112.66L94.43,-63.15L25.44,-63.15Z"/>
    <path d="M-7.80,-29.87L61.19,-29.87L61.19,19.64L-7.80,19.64Z"/>
    <path d="M-57.19,37.96L11.80,37.96L11.80,87.47L-57.19,87.47Z"/>
    <path d="M-123.49,113.02L-54.50,113.02L-54.50,162.53L-123.49,162.53Z"/>
    <path d="M-187.89,180.51L-118.91,180.51L-118.91,230.01L-187.89,230.01Z"/>
    <path d="M-251.60,247.22L-182.61,247.22L-182.61,296.73L-251.60,296.73Z"/>
    <path d="M-224.85,275.25L-155.86,275.25L-155.86,324.75L-224.85,324.75Z"/>
    <path d="M-132.60,275.25L-63.62,275.25L-63.62,324.75L-132.60,324.75Z"/>
    <path d="M-40.36,275.25L28.63,275.25L28.63,324.75L-40.36,324.75Z"/>
    <path d="M51.89,275.25L120.87,275.25L120.87,324.75L51.89,324.75Z"/>
    <path d="M144.13,275.25L213.12,275.25L213.12,324.75L144.13,324.75Z"/>
    <path d="M197.80,236.66L266.78,236.66L266.78,286.17L197.80,286.17Z"/>
</svg>