<?xml version="1.0"?>
<svg xmlns="http://www.w3.org/2000/svg" width="1000" height="1000" viewBox="-500 -500 1000 1000">
    <path d="M-276.57,72.33L-207.59,72.33L-207.59,121.83L-276.57,121.83Z"/>
    <path d="M-246.45,171.53L-177.46,171.53L-177.46,221.03L-246.45,221.03Z"/>
    <path d="M-196.09,233.11L-127.10,233.11L-127.10,282.62L-196.09,282.62Z"/>
    <path d="M-113.24,277.90L-44.26,277.90L-44.26,327.41L-113.24,327.41Z"/>
    <path d="M-24.67,288.51L44.32,288.51L44.32,338.02L-24.67,338.02Z"/>
    <path d="M77.92,268.59L146.91,268.59L146.91,318.10L77.92,318.10Z"/>
    <path d="M142.57,227.20L211.56,227.20L211.56,276.71L142.57,276.71Z"/>
    <path d="M186.21,159.65L255.19,159.65L255.19,209.16L186.21,209.16Z"/>
    <path d="M193.22,58.34L262.21,58.34L262.21,107.85L193.22,107.85Z"/>
    <path d="M152.86,-14.23L221.85,-14.23L221.85,35.28L152.86,35.28Z"/>
    <path d="M131.11,-68.34L200.10,-68.34L200.10,-18.83L131.11,-18.83Z"/>
    <path d="M164.47,-151.58L233.45,-151.58L233.45,-102.08L164.47,-102.08Z"/>
    <path d="M145.38,-241.13L214.36,-241.13L214.36,-191.62L145.38,-191.62Z"/>
    <path d="M78.80,-307.15L147.79,-307.15L147.79,-257.64L78.80,-257.64Z"/>
    <path d="M-7.99,-330.90L61.00,-330.90L61.00,-281.39L-7.99,-281.39Z"/>
    <path d="M-94.79,-325.23L-25.80,-325.23L-25.80,-275.72L-94.79,-275.72Z"/>
    <path d="M-175.91,-285.00L-106.92,-285.00L-106.92,-235.50L-175.91,-235.50Z"/>
    <path d="M-225.66,-218.11L-156.67,-218.11L-156.67,-168.60L-225.66,-168.60Z"/>
    <path d="M-228.17,-137.71L-159.18,-137.71L-159.18,-88.21L-228.17,-88.21Z"/>
    <path d="M-136.48,-137.71L-67.50,-137.71L-67.50,-88.21L-136.48,-88.21Z"/>
    <path d="M-82.00,-189.91L-13.01,-189.91L-13.01,-140.40L-82.00,-140.40Z"/>
    <path d="M2.85,-191.04L71.83,-191.04L71.83,-141.53L2.85,-141.53Z"/>
    <path d="M5.60,-109.13L74.58,-109.13L74.58,-59.63L5.60,-59.63Z"/>
    <path d="M-62.08,-70.42L6.90,-70.42L6.90,-20.92L-62.08,-20.92Z"/>
    <path d="M-55.82,12.74L13.16,12.74L13.16,62.25L-55.82,62.25Z"/>
    <path d="M27.16,34.19L96.15,34.19L96.15,83.70L27.16,83.70Z"/>
    <path d="M32.11,121.46L101.09,121.46L101.09,170.97L32.11,170.97Z"/>
    <path d="M-50.96,153.82L18.02,153.82L18.02,203.33L-50.96,203.33Z"/>
    <path d="M-114.44,98.40L-45.45,98.40L-45.45,147.91L-114.44,147.91Z"/>
    <path d="M-184.89,72.33L-115.90,72.33L-115.90,121.83L-184.89,121.83Z"/>
</svg>