<?xml version="1.0"?>
<svg xmlns="http://www.w3.org/2000/svg" width="1000" height="1000" viewBox="-500 -500 1000 1000">
    <path d="M138.17,-318.38L207.15,-318.38L207.15,-268.88L138.17,-268.88Z"/>
    <path d="M46.09,-318.38L115.08,-318.38L115.08,-268.88L46.09,-268.88Z"/>
    <path d="M-45.98,-318.38L23.01,-318.38L23.01,-268.88L-45.98,-268.88Z"/>
    <path d="M-101.49,-253.94L-32.50,-253.94L-32.50,-204.43L-101.49,-204.43Z"/>
    <path d="M-148.73,-174.91L-79.74,-174.91L-79.74,-125.40L-148.73,-125.40Z"/>
    <path d="M-195.96,-95.87L-126.98,-95.87L-126.98,-46.37L-195.96,-46.37Z"/>
    <path d="M-243.20,-16.84L-174.21,-16.84L-174.21,32.67L-243.20,32.67Z"/>
    <path d="M-290.43,62.19L-221.45,62.19L-221.45,111.70L-290.43,111.70Z"/>
    <path d="M-291.70,153.91L-222.72,153.91L-222.72,203.42L-291.70,203.42Z"/>
    <path d="M-208.82,163.11L-139.84,163.11L-139.84,212.61L-208.82,212.61Z"/>
    <path d="M-116.75,163.11L-47.77,163.11L-47.77,212.61L-116.75,212.61Z"/>
    <path d="M-24.68,163.11L44.31,163.11L44.31,212.61L-24.68,212.61Z"/>
    <path d="M-4.23,234.73L64.75,234.73L64.75,284.24L-4.23,284.24Z"/>
    <path d="M47.32,275.25L116.31,275.25L116.31,324.75L47.32,324.75Z"/>
    <path d="M138.17,274.02L207.15,274.02L207.15,323.52L138.17,323.52Z"/>
    <path d="M138.17,181.94L207.15,181.94L207.15,231.45L138.17,231.45Z"/>
    <path d="M210.26,161.96L279.24,161.96L279.24,211.47L210.26,211.47Z"/>
    <path d="M210.26,69.89L279.24,69.89L279.24,119.40L210.26,119.40Z"/>
    <path d="M143.34,44.74L212.32,44.74L212.32,94.24L143.34,94.24Z"/>
    <path d="M138.17,-42.17L207.15,-42.17L207.15,7.34L138.17,7.34Z"/>
    <path d="M138.17,-134.24L207.15,-134.24L207.15,-84.73L138.17,-84.73Z"/>
    <path d="M138.17,-226.31L207.15,-226.31L207.15,-176.80L138.17,-176.80Z"/>
    <path d="M-143.96,44.74L-74.98,44.74L-74.98,94.24L-143.96,94.24Z"/>
    <path d="M-102.64,-26.86L-33.65,-26.86L-33.65,22.65L-102.64,22.65Z"/>
    <path d="M-61.31,-98.45L7.67,-98.45L7.67,-48.95L-61.31,-48.95Z"/>
    <path d="M-19.99,-170.05L49.00,-170.05L49.00,-120.54L-19.99,-120.54Z"/>
    <path d="M-4.23,-146.19L64.75,-146.19L64.75,-96.69L-4.23,-96.69Z"/>
    <path d="M-4.23,-63.53L64.75,-63.53L64.75,-14.02L-4.23,-14.02Z"/>
    <path d="M-4.23,19.14L64.75,19.14L64.75,68.64L-4.23,68.64Z"/>
    <path d="M-61.30,44.74L7.69,44.74L7.69,94.24L-61.30,94.24Z"/>
</svg>