<?xml version="1.0"?>
<svg xmlns="http://www.w3.org/2000/svg" width="1000" height="1000" viewBox="-500 -500 1000 1000">
    <path d="M139.06,-318.38L208.04,-318.38L208.04,-268.88L139.06,-268.88Z"/>
    <path d="M47.03,-318.38L116.02,-318.38L116.02,-268.88L47.03,-268.88Z"/>
    <path d="M-45.00,-318.38L23.99,-318.38L23.99,-268.88L-45.00,-268.88Z"/>
    <path d="M-137.02,-318.38L-68.04,-318.38L-68.04,-268.88L-137.02,-268.88Z"/>
    <path d="M-179.23,-259.87L-110.24,-259.87L-110.24,-210.36L-179.23,-210.36Z"/>
    <path d="M-193.90,-169.02L-124.92,-169.02L-124.92,-119.51L-193.90,-119.51Z"/>
    <path d="M-208.58,-78.17L-139.60,-78.17L-139.60,-28.66L-208.58,-28.66Z"/>
    <path d="M-211.35,-3.61L-142.36,-3.61L-142.36,45.90L-211.35,45.90Z"/>
    <path d="M-122.40,-23.60L-53.42,-23.60L-53.42,25.90L-122.40,25.90Z"/>
    <path d="M-35.10,-12.03L33.88,-12.03L33.88,37.48L-35.10,37.48Z"/>
    <path d="M22.37,56.18L91.36,56.18L91.36,105.68L22.37,105.68Z"/>
    <path d="M-9.96,139.16L59.02,139.16L59.02,188.67L-9.96,188.67Z"/>
    <path d="M-98.49,158.25L-29.50,158.25L-29.50,207.76L-98.49,207.76Z"/>
    <path d="M-177.22,133.63L-108.23,133.63L-108.23,183.13L-177.22,183.13Z"/>
    <path d="M-241.78,118.23L-172.79,118.23L-172.79,167.73L-241.78,167.73Z"/>
    <path d="M-256.36,209.09L-187.38,209.09L-187.38,258.60L-256.36,258.60Z"/>
    <path d="M-210.98,260.96L-142.00,260.96L-142.00,310.47L-210.98,310.47Z"/>
    <path d="M-122.74,284.51L-53.75,284.51L-53.75,334.02L-122.74,334.02Z"/>
    <path d="M-25.38,287.20L43.60,287.20L43.60,336.71L-25.38,336.71Z"/>
    <path d="M61.71,265.96L130.70,265.96L130.70,315.46L61.71,315.46Z"/>
    <path d="M135.79,209.53L204.77,209.53L204.77,259.03L135.79,259.03Z"/>
    <path d="M174.54,132.42L243.52,132.42L243.52,181.93L174.54,181.93Z"/>
    <path d="M176.28,22.60L245.27,22.60L245.27,72.11L176.28,72.11Z"/>
    <path d="M138.27,-55.57L207.25,-55.57L207.25,-6.06L138.27,-6.06Z"/>
    <path d="M81.27,-101.42L150.26,-101.42L150.26,-51.91L81.27,-51.91Z"/>
    <path d="M-17.37,-125.92L51.62,-125.92L51.62,-76.41L-17.37,-76.41Z"/>
    <path d="M-71.61,-156.28L-2.62,-156.28L-2.62,-106.77L-71.61,-106.77Z"/>
    <path d="M-6.19,-187.55L62.79,-187.55L62.79,-138.05L-6.19,-138.05Z"/>
    <path d="M85.83,-187.55L154.82,-187.55L154.82,-138.05L85.83,-138.05Z"/>
    <path d="M139.06,-226.36L208.04,-226.36L208.04,-176.85L139.06,-176.85Z"/>
</svg>