<?xml version="1.0"?>
<svg xmlns="http://www.w3.org/2000/svg" width="1000" height="1000" viewBox="-500 -500 1000 1000">
    <path d="M-63.86,-318.38L5.12,-318.38L5.12,-268.88L-63.86,-268.88Z"/>
    <path d="M-117.48,-247.85L-48.49,-247.85L-48.49,-198.35L-117.48,-198.35Z"/>
    <path d="M-171.10,-177.32L-102.11,-177.32L-102.11,-127.81L-171.10,-127.81Z"/>
    <path d="M-222.76,-106.31L-153.77,-106.31L-153.77,-56.80L-222.76,-56.80Z"/>
    <path d="M-263.54,-27.12L-194.56,-27.12L-194.56,22.39L-263.54,22.39Z"/>
    <path d="M-283.87,58.94L-214.88,58.94L-214.88,108.45L-283.87,108.45Z"/>
    <path d="M-270.64,154.02L-201.65,154.02L-201.65,203.53L-270.64,203.53Z"/>
    <path d="M-227.69,219.13L-158.71,219.13L-158.71,268.64L-227.69,268.64Z"/>
    <path d="M-169.84,260.15L-100.85,260.15L-100.85,309.66L-169.84,309.66Z"/>
    <path d="M-77.12,286.33L-8.14,286.33L-8.14,335.84L-77.12,335.84Z"/>
    <path d="M15.34,285.15L84.32,285.15L84.32,334.66L15.34,334.66Z"/>
    <path d="M98.95,258.94L167.93,258.94L167.93,308.44L98.95,308.44Z"/>
    <path d="M173.92,195.75L242.91,195.75L242.91,245.26L173.92,245.26Z"/>
    <path d="M210.28,116.35L279.27,116.35L279.27,165.86L210.28,165.86Z"/>
    <path d="M213.56,31.57L282.55,31.57L282.55,81.07L213.56,81.07Z"/>
    <path d="M183.51,-49.15L252.50,-49.15L252.50,0.36L183.51,0.36Z"/>
    <path d="M113.69,-112.17L182.67,-112.17L182.67,-62.67L113.69,-62.67Z"/>
    <path d="M31.73,-134.91L100.71,-134.91L100.71,-85.41L31.73,-85.41Z"/>
    <path d="M-54.05,-117.91L14.93,-117.91L14.93,-68.40L-54.05,-68.40Z"/>
    <path d="M-3.46,-181.07L65.52,-181.07L65.52,-131.57L-3.46,-131.57Z"/>
    <path d="M53.40,-249.01L122.39,-249.01L122.39,-199.51L53.40,-199.51Z"/>
    <path d="M110.27,-316.95L179.26,-316.95L179.26,-267.45L110.27,-267.45Z"/>
    <path d="M24.73,-318.38L93.72,-318.38L93.72,-268.88L24.73,-268.88Z"/>
    <path d="M-38.05,166.67L30.93,166.67L30.93,216.17L-38.05,216.17Z"/>
    <path d="M-112.30,131.97L-43.31,131.97L-43.31,181.47L-112.30,181.47Z"/>
    <path d="M-132.43,53.84L-63.44,53.84L-63.44,103.35L-132.43,103.35Z"/>
    <path d="M-78.47,-9.47L-9.49,-9.47L-9.49,40.04L-78.47,40.04Z"/>
    <path d="M-1.51,-11.65L67.48,-11.65L67.48,37.86L-1.51,37.86Z"/>
    <path d="M56.61,55.87L125.59,55.87L125.59,105.37L56.61,105.37Z"/>
    <path d="M36.15,132.85L105.14,132.85L105.14,182.36L36.15,182.36Z"/>
</svg>