<?xml version="1.0"?>
<svg xmlns="http://www.w3.org/2000/svg" width="1000" height="1000" viewBox="-500 -500 1000 1000">
    <path d="M-249.87,275.25L-180.89,275.25L-180.89,324.75L-249.87,324.75Z"/>
    <path d="M-159.66,275.25L-90.68,275.25L-90.68,324.75L-159.66,324.75Z"/>
    <path d="M-74.70,266.20L-5.71,266.20L-5.71,315.70L-74.70,315.70Z"/>
    <path d="M-29.87,187.92L39.12,187.92L39.12,237.42L-29.87,237.42Z"/>
    <path d="M14.97,109.63L83.95,109.63L83.95,159.14L14.97,159.14Z"/>
    <path d="M59.80,31.35L128.78,31.35L128.78,80.86L59.80,80.86Z"/>
    <path d="M104.63,-46.93L173.62,-46.93L173.62,2.58L104.63,2.58Z"/>
    <path d="M149.46,-125.21L218.45,-125.21L218.45,-75.70L149.46,-75.70Z"/>
    <path d="M194.30,-203.49L263.28,-203.49L263.28,-153.98L194.30,-153.98Z"/>
    <path d="M239.13,-281.77L308.11,-281.77L308.11,-232.26L239.13,-232.26Z"/>
    <path d="M212.08,-318.38L281.07,-318.38L281.07,-268.88L212.08,-268.88Z"/>
    <path d="M121.87,-318.38L190.86,-318.38L190.86,-268.88L121.87,-268.88Z"/>
    <path d="M31.66,-318.38L100.65,-318.38L100.65,-268.88L31.66,-268.88Z"/>
    <path d="M-58.55,-318.38L10.44,-318.38L10.44,-268.88L-58.55,-268.88Z"/>
    <path d="M-148.76,-318.38L-79.77,-318.38L-79.77,-268.88L-148.76,-268.88Z"/>
    <path d="M-226.73,-306.15L-157.75,-306.15L-157.75,-256.64L-226.73,-256.64Z"/>
    <path d="M-226.73,-215.94L-157.75,-215.94L-157.75,-166.43L-226.73,-166.43Z"/>
    <path d="M-164.91,-187.55L-95.92,-187.55L-95.92,-138.05L-164.91,-138.05Z"/>
    <path d="M-74.70,-187.55L-5.71,-187.55L-5.71,-138.05L-74.70,-138.05Z"/>
    <path d="M15.51,-187.55L84.50,-187.55L84.50,-138.05L15.51,-138.05Z"/>
    <path d="M-22.23,-114.14L46.76,-114.14L46.76,-64.64L-22.23,-64.64Z"/>
    <path d="M-67.76,-36.27L1.23,-36.27L1.23,13.24L-67.76,13.24Z"/>
    <path d="M-113.29,41.61L-44.30,41.61L-44.30,91.12L-113.29,91.12Z"/>
    <path d="M-158.82,119.49L-89.83,119.49L-89.83,169.00L-158.82,169.00Z"/>
    <path d="M-204.34,197.37L-135.36,197.37L-135.36,246.88L-204.34,246.88Z"/>
</svg>