<?xml version="1.0"?>
<svg xmlns="http://www.w3.org/2000/svg" width="1000" height="1000" viewBox="-500 -500 1000 1000">
    <path d="M70.53,-37.14L139.51,-37.14L139.51,12.36L70.53,12.36Z"/>
    <path d="M141.80,-85.84L210.79,-85.84L210.79,-36.33L141.80,-36.33Z"/>
    <path d="M167.35,-174.32L236.34,-174.32L236.34,-124.81L167.35,-124.81Z"/>
    <path d="M136.81,-260.07L205.79,-260.07L205.79,-210.56L136.81,-210.56Z"/>
    <path d="M74.15,-309.90L143.13,-309.90L143.13,-260.39L74.15,-260.39Z"/>
    <path d="M-16.26,-331.44L52.72,-331.44L52.72,-281.93L-16.26,-281.93Z"/>
    <path d="M-112.35,-319.48L-43.37,-319.48L-43.37,-269.98L-112.35,-269.98Z"/>
    <path d="M-185.85,-279.02L-116.86,-279.02L-116.86,-229.51L-185.85,-229.51Z"/>
    <path d="M-231.30,-204.67L-162.32,-204.67L-162.32,-155.17L-231.30,-155.17Z"/>
    <path d="M-224.02,-109.16L-155.03,-109.16L-155.03,-59.66L-224.02,-59.66Z"/>
    <path d="M-168.66,-49.72L-99.67,-49.72L-99.67,-0.21L-168.66,-0.21Z"/>
    <path d="M-199.49,-8.85L-130.50,-8.85L-130.50,40.65L-199.49,40.65Z"/>
    <path d="M-251.33,60.46L-182.34,60.46L-182.34,109.97L-251.33,109.97Z"/>
    <path d="M-257.10,147.82L-188.11,147.82L-188.11,197.32L-257.10,197.32Z"/>
    <path d="M-212.18,226.61L-143.19,226.61L-143.19,276.12L-212.18,276.12Z"/>
    <path d="M-158.11,263.94L-89.12,263.94L-89.12,313.44L-158.11,313.44Z"/>
    <path d="M-53.50,288.17L15.49,288.17L15.49,337.67L-53.50,337.67Z"/>
    <path d="M67.74,272.26L136.73,272.26L136.73,321.76L67.74,321.76Z"/>
    <path d="M133.83,235.12L202.82,235.12L202.82,284.62L133.83,284.62Z"/>
    <path d="M180.14,172.59L249.13,172.59L249.13,222.10L180.14,222.10Z"/>
    <path d="M190.76,91.11L259.74,91.11L259.74,140.61L190.76,140.61Z"/>
    <path d="M147.17,8.35L216.16,8.35L216.16,57.86L147.17,57.86Z"/>
    <path d="M-32.71,-228.49L36.27,-228.49L36.27,-178.99L-32.71,-178.99Z"/>
    <path d="M27.64,-181.81L96.63,-181.81L96.63,-132.30L27.64,-132.30Z"/>
    <path d="M0.57,-110.33L69.56,-110.33L69.56,-60.82L0.57,-60.82Z"/>
    <path d="M-73.05,-112.98L-4.06,-112.98L-4.06,-63.47L-73.05,-63.47Z"/>
    <path d="M-95.36,-185.44L-26.37,-185.44L-26.37,-135.94L-95.36,-135.94Z"/>
    <path d="M-34.49,25.16L34.49,25.16L34.49,74.66L-34.49,74.66Z"/>
    <path d="M33.47,73.28L102.46,73.28L102.46,122.79L33.47,122.79Z"/>
    <path d="M7.35,152.36L76.34,152.36L76.34,201.87L7.35,201.87Z"/>
    <path d="M-76.28,152.05L-7.30,152.05L-7.30,201.55L-76.28,201.55Z"/>
    <path d="M-102.52,74.89L-33.54,74.89L-33.54,124.40L-102.52,124.40Z"/>
</svg>